<svg xmlns="http://www.w3.org/2000/svg" width="800" height="400" viewBox="0 0 800 400"><rect width="800" height="400" fill="#1f2937"/><path d="M4 16l4.586-4.586a2 2 0 012.828 0L16 16m-2-2l1.586-1.586a2 2 0 012.828 0L20 14m-6-6h.01M6 20h12a2 2 0 002-2V6a2 2 0 00-2-2H6a2 2 0 00-2 2v12a2 2 0 002 2z" stroke="currentColor" strokeWidth="2" strokeLinecap="round" strokeLinejoin="round" transform="translate(350, 160) scale(4)" stroke="#4b5563"/><text x="400" y="280" font-family="system-ui, -apple-system, sans-serif" font-size="24" fill="#6b7280" text-anchor="middle">No Image Available</text></svg>
