<svg width="64" height="40" xmlns="http://www.w3.org/2000/svg">
  <rect width="64" height="40" fill="#1e293b"/>
  <path d="M32 10C28 10 24 12 22 15L18 20H14C12 20 10 22 10 24V28C10 29 11 30 12 30H14C14 33 17 35 20 35C23 35 26 33 26 30H38C38 33 41 35 44 35C47 35 50 33 50 30H52C53 30 54 29 54 28V24C54 22 52 20 50 20H48L44 15C42 12 38 10 36 10H32ZM20 26C22 26 24 28 24 30C24 32 22 34 20 34C18 34 16 32 16 30C16 28 18 26 20 26ZM44 26C46 26 48 28 48 30C48 32 46 34 44 34C42 34 40 32 40 30C40 28 42 26 44 26Z" fill="#64748b"/>
</svg> 