<svg width="800" height="400" viewBox="0 0 800 400" xmlns="http://www.w3.org/2000/svg">
  <rect width="800" height="400" fill="#1F2937"/>
  <path d="M400 140C380 140 350 150 340 170L320 200H280C260 200 240 220 240 240V280C240 290 250 300 260 300H280C280 330 310 350 340 350C370 350 400 330 400 300H460C460 330 490 350 520 350C550 350 580 330 580 300H600C610 300 620 290 620 280V240C620 220 600 200 580 200H560L540 170C530 150 500 140 480 140H400ZM340 260C360 260 380 280 380 300C380 320 360 340 340 340C320 340 300 320 300 300C300 280 320 260 340 260ZM520 260C540 260 560 280 560 300C560 320 540 340 520 340C500 340 480 320 480 300C480 280 500 260 520 260Z" fill="#4B5563"/>
  <text x="400" y="120" font-family="Arial" font-size="24" fill="#9CA3AF" text-anchor="middle">No Image Available</text>
</svg> 